<?xml version="1.0" standalone="yes"?>
<svg xmlns="http://www.w3.org/2000/svg" width="563" height="604">
<path style="fill:#fefefe; stroke:none;" d="M0 0L0 604L563 604L563 0L0 0z"/>
<path style="fill:#1d6e80; stroke:none;" d="M223 234L223.654 235.671L224.61 237.142C225.36 238.057 226.132 238.984 227.059 239.73L229.005 241.181L231 242.276L232 242.713L233 243.08L235 243.62C236.642 243.957 238.33 243.992 240 243.992C241.671 243.992 243.357 243.954 245 243.62C247.748 243.062 250.233 241.73 252.84 240.755L254.329 240.285L256 240L256.654 241.671L256.995 242.159L257.606 243.16L259.11 245.025L261.718 248L265.076 251.961L269.742 257.285L272.091 260L275.258 263.576L277.499 266.17L280.755 270.004C281.88 271.342 282.994 272.689 284.155 273.996C286.076 276.16 288.108 278.222 289.985 280.424C291.499 282.2 292.896 284.072 294.425 285.834L296.79 288.421L299.105 291L301.294 293.579L304.285 297.075L307.501 300.715L310.499 304.17L313.755 308.004L316.282 311L320.718 316L323.246 319L326.59 323L328.282 324.999C330.225 327.234 332.296 329.352 334.251 331.575C335.486 332.979 336.661 334.434 337.86 335.87C339.318 337.618 340.79 339.357 342.285 341.075C343.341 342.288 344.408 343.492 345.497 344.676L349.039 348.514L354.575 354.911L357.711 358.385L359.114 360C360.501 361.696 361.861 363.413 363.289 365.075L367.258 369.576C368.832 371.372 370.382 373.191 371.924 375.015C373.333 376.682 374.706 378.38 376.17 380C377.72 381.716 379.345 383.37 381.001 384.985C382.589 386.533 384.192 388.069 386 389.363C386.956 390.047 387.968 390.64 389 391.201C390.3 391.907 391.641 392.544 393 393.127C394.31 393.69 395.644 394.197 397 394.64C398.311 395.069 399.638 395.447 401 395.674C402.324 395.896 403.66 395.957 405 395.985L409 396L412 395.999C413.333 395.991 414.669 396.003 416 395.91C417.008 395.839 418.006 395.716 419 395.535C420.355 395.289 421.683 394.929 423 394.532L425 393.805L426 393.37L429 391.912C430.702 391.06 432.422 390.222 434 389.15C435.796 387.931 437.426 386.492 438.96 384.96C440.503 383.419 441.941 381.774 443.211 380C444.345 378.417 445.316 376.725 446.215 375C447.059 373.379 447.837 371.722 448.453 370C449.036 368.37 449.461 366.681 449.869 365C450.27 363.348 450.645 361.693 450.826 360C451.004 358.341 450.998 356.666 450.998 355C450.998 352.996 450.992 350.987 450.699 349C450.55 347.989 450.335 346.989 450.076 346C449.723 344.648 449.268 343.328 448.836 342.001L447.546 338.09L447.19 337.17L446.791 336.285C446.375 335.377 445.792 334.54 445.235 333.715L443.945 331.91C442.943 330.571 441.924 329.253 440.816 327.999C438.722 325.631 436.426 323.449 434.09 321.325L431.424 319.001L425.167 313.514L421.804 310.772C420.976 310.08 420.167 309.379 419.385 308.636L415.91 305.271C414.645 304.117 413.319 303.032 412.014 301.924L407.424 297.999C404.91 295.803 402.519 293.473 399.999 291.282L397.004 288.755C395.146 287.189 393.278 285.63 391.464 284.014C389.55 282.31 387.749 280.484 385.826 278.789L380.999 274.725L378 272.13L374 268.729L371 266.13L365.015 261.004L360.514 257.039L356.69 253.576L351.575 249.251L345.996 244.155C344.048 242.426 342.025 240.781 340.039 239.095C338.25 237.576 336.458 236.058 334.715 234.487C332.8 232.761 330.945 230.974 328.999 229.282L326.004 226.755L323.09 224.285L319.576 221.258L316 218.091L310.715 213.487L305.996 209.155C304.367 207.709 302.683 206.326 301.015 204.924L298.194 202.559L296.579 201.323L295.754 200.828L295.36 200.556L294 200L294.857 198.329L295.134 197.841C296.15 195.938 297.192 194.049 297.892 192C298.224 191.028 298.521 190.018 298.671 189L298.815 188C298.941 186.668 299 185.339 298.981 184C298.962 182.663 298.908 181.317 298.66 180C298.397 178.607 297.946 177.268 297.312 176C296.595 174.567 295.678 173.237 294.664 172C293.33 170.371 291.879 168.841 290.606 167.16L289.654 165.671L289 164L290.671 163.35L292.16 162.448L293.045 161.832L295.005 160.545L297 159.599C298.61 159.034 300.317 159.039 302 159.005C304.334 158.957 306.701 159.107 309 158.61C311.118 158.152 313.074 157.202 315 156.239C316.014 155.732 317.013 155.206 317.999 154.648L319.981 153.363L320.946 152.61L321.87 151.791L323.525 149.996C324.231 149.145 324.821 148.219 325.407 147.285L326.34 145.576L326.749 144.715L327.554 142.91L328.826 139.996L329.2 138.999L329.726 137L329.945 135L329.998 132C330.002 130.002 330.018 127.975 329.671 126C329.306 123.918 328.564 121.941 327.711 120.015C327.004 118.416 326.235 116.831 325.186 115.424C324.497 114.5 323.696 113.681 322.907 112.845L321.151 111.05L318.576 108.424L315.951 105.845L313.321 103.17L310.295 100.015L307.421 97.1018C305.904 95.5056 304.481 93.8255 302.905 92.2855C301.834 91.2383 300.695 90.2654 299.586 89.2585C298.454 88.2297 297.347 87.1784 296.285 86.0764C294.683 84.4133 293.209 82.6356 291.675 80.9105C290.793 79.918 289.881 78.9527 288.96 77.9962C287.006 75.9664 284.993 73.9919 283 72C281.015 70.0157 279.051 68.0073 277.001 66.0895L272.174 61.7546C270.792 60.4642 269.497 59.0873 268.155 57.7562C266.954 56.5643 265.731 55.3904 264.485 54.2446C262.755 52.6526 261.009 51.0585 258.996 49.8248C257.736 49.0522 256.368 48.4427 255 47.8889L253 47.0941L252 46.75L250 46.2631C249.009 46.0887 248.003 46.0483 247 46.0185L244.001 46.0008L241.039 46.054L239.17 46.2631L237.424 46.7492L234.845 47.8488L233.05 48.5803C232.16 48.946 231.263 49.287 230.424 49.7639C228.81 50.6808 227.371 51.8884 226.054 53.189L224.326 55.0401L223.532 56.0146L222.133 58.0008L221.529 59L220.985 60L220.044 62C219.206 63.9233 218.51 65.9175 218.21 68C218.067 68.9926 218.039 69.9993 218.015 71L217.995 74.9992L217.945 76.9854L217.867 77.9599L217.721 78.9066L217.142 80.6752L216.682 81.4861L216.106 82.2546L214.656 83.7454L212.906 85.3248L210 88.0401C208.69 89.315 207.423 90.6302 206.17 91.9606L203.576 94.7145C201.789 96.5295 199.871 98.2076 198.086 100.025C196.387 101.755 194.816 103.605 193.116 105.335C191.481 106.998 189.71 108.517 188.054 110.159L186.321 111.946C185.303 113.052 184.315 114.185 183.258 115.255L180.909 117.499L179.285 119.091L176.294 122.258L173.331 125.324L169.95 128.921C168.589 130.305 167.161 131.618 165.76 132.96L162.975 135.67L160.141 138.424L156.659 142L153.105 145.654L149.21 149.575L145.428 153.279L141.279 157.424L139.844 158.84L138.331 160.147L136.7 161.146L135.826 161.487L133.961 161.867L132.985 161.945L130.999 161.995C128.666 162.039 126.31 161.916 124 162.329C122.62 162.576 121.291 162.984 120 163.529C118.975 163.961 117.996 164.484 117.015 165.004L115.093 166.062C113.942 166.722 112.782 167.369 111.749 168.21L110.295 169.557L109.58 170.34L108.863 171.188L107.461 173.04L106.171 175.004L105.019 177L103.964 179L103.479 180L103.049 181L102.415 183C101.952 184.957 102.008 187.003 102.001 189L102.015 192L102.093 194L102.185 195L102.529 197C102.767 198.03 103.112 199.011 103.479 200L103.905 201L104.378 202L105.479 204C106.326 205.405 107.286 206.735 108.329 208C109.483 209.4 110.748 210.703 112.014 212L114.961 214.985C116.156 216.201 117.325 217.448 118.56 218.625C119.848 219.853 121.2 221.014 122.445 222.285L125.375 225.44L129.015 229.039L134 234L139.985 239.996L143.711 243.791L145.385 245.406C146.465 246.392 147.573 247.347 148.615 248.375C150.134 249.874 151.555 251.471 153.039 253.004L157 257L163 263C164.327 264.325 165.641 265.665 167 266.957C167.967 267.875 168.945 268.788 170 269.606C170.951 270.344 171.942 271.009 173 271.583C174.276 272.276 175.635 272.812 177 273.3C178.626 273.881 180.294 274.39 182 274.674C183.652 274.95 185.329 274.992 187 274.992C188.333 274.993 189.673 274.968 191 274.826C192.01 274.719 193.012 274.55 194 274.316C195.019 274.075 196.022 273.775 197 273.401C198.028 273.008 199.026 272.537 200 272.025C201.761 271.1 203.452 270.041 204.96 268.737C207.171 266.825 209.014 264.497 210.521 262C211.652 260.125 212.605 258.108 213.211 256C213.491 255.024 213.714 254.012 213.815 253L213.96 251L214 248L214.059 245L214.148 244L214.603 242L215.603 240.005L216.316 239.019L218.034 237.149L218.975 236.316L220.842 234.995L221.329 234.654L223 234z"/>
<path style="fill:#fefefe; stroke:none;" d="M242 60.7723L240 61.608L239.001 62.1481L238.005 62.7685L237.019 63.4745L236.059 64.2639L235.148 65.1296L234.318 66.054L233.028 68.0046L232.318 70L232.149 71L232.035 73C232.021 74.0071 232.1 75.0007 232.214 76L232.653 78L233.009 79L233.457 80L234.653 82C235.643 83.4431 236.841 84.7344 238.043 86C239.335 87.3594 240.675 88.6731 242 90L253 101L271 119L277 125L281.996 129.961L284.91 132.715L286.715 134.424L288.424 136.17C289.629 137.433 290.785 138.745 292.039 139.96C293.805 141.669 295.667 143.371 298 144.258L300 144.767L301 144.873L302 144.902L303 144.856L303.999 144.736L304.996 144.539L306.96 143.945L308.816 143.177L309.674 142.745L310.481 142.271L311.942 141.125C313.904 139.242 315.008 136.635 315.517 133.999C315.835 132.352 315.935 130.648 315.566 129C315.16 127.182 314.251 125.557 313.235 124.015C312.582 123.022 311.846 122.093 311.1 121.17L309.536 119.424L308.704 118.576L306.054 115.951L302.001 111.745L298.909 108.715L296.5 106.285L294.295 104.014L291.421 101.105C290.18 99.811 288.988 98.4734 287.715 97.2099L284.5 94.1543C283.029 92.7376 281.566 91.3082 280.14 89.8456L275.765 85.196L271.75 81.0803L269.246 78.5725L265.845 75.0502L263.155 72.4275L260.59 69.9236L258.08 67.5L255.572 65.2979L253.83 63.8889L251.961 62.5594L249.996 61.4421L248 60.6566L246 60.2677L245 60.2346L244 60.3071L242 60.7723M206 228L207.239 227.096L207.637 226.758L208.45 226.104C209.666 225.068 210.847 223.996 212.016 222.906C213.376 221.638 214.682 220.311 216 218.999C218.321 216.689 220.651 214.385 222.91 212.015L226.385 208.286L230.424 204.081C232.33 202.148 234.304 200.284 236.247 198.389L241.282 193.41L243.946 190.845L245.679 189.054L248.705 185.749L251.576 182.86L254.345 180.025C255.833 178.546 257.411 177.166 258.924 175.714L261.414 173.246L263.92 170.753L267.286 167.41L271.989 162.961C273.851 161.124 275.62 159.197 277.405 157.285L279.018 155.576L280.392 153.834C280.909 152.988 281.28 152.085 281.249 151.075L280.762 149.285L280.239 148.424L279.566 147.576L278.785 146.718L277.931 145.845L276.154 144.05L273.576 141.424L270.914 138.831L268.086 136.025L264.59 132.428L261.286 129.095L257.656 125.344L251.964 119.907C250.672 118.645 249.408 117.357 248.174 116.039L244.899 112.515L242.71 110.295L239.849 107.421L236.87 104.489L234.551 102L232.916 100.311L231.246 98.7639L229.572 97.4074L228.714 96.8233L227.83 96.3364L225.965 95.8133L224.036 96.0679L223.093 96.4738L222.184 97.0116L220.514 98.3141L219.745 99.0185L218.258 100.5L215.909 102.909L212.742 106L209.715 109.095L206.41 112.427L202.95 115.95L199.424 119.424L195.95 122.95L192.424 126.424L188.95 129.95L185.424 133.424L180.961 138.015C178.331 140.698 175.667 143.349 173.001 145.996L170.039 148.91L166.424 152.424L162.91 156.039L159.996 159.001L156.005 163L154.059 165L153.153 166L152.337 167L151.662 168L151.176 169L150.921 171C151.054 172.125 151.688 173.109 152.337 174C153.127 175.083 154.097 176.034 155.019 177L158 180C159.651 181.648 161.303 183.294 162.985 184.91L165.83 187.576L167.576 189.285L173.015 195.001L180 202L193 215L199.959 221.984C201.52 223.575 203.046 225.203 204.64 226.761L206 228z"/>
<path style="fill:#1d6e80; stroke:none;" d="M222.424 115.859L220.715 116.894L219.83 117.573L217.961 119.189C216.947 120.102 215.973 121.059 214.999 122.015L211 126L199.004 137.985L196.104 140.83L195.21 141.715C194.161 142.806 193.123 143.899 192.287 145.17L191.228 147.039L190.819 148.015L190.294 150.001L190.203 151.995L190.608 153.941L191.603 155.682L193.148 156.968L194.059 157.381L196.005 157.743L197.001 157.713L199 157.253L201 156.258L201.999 155.57L202.996 154.786L203.985 153.931L205.907 152.169L209.255 149.001L213.095 145.076L215.59 142.572L220.039 137.985L223.001 135C224.657 133.338 226.331 131.693 227.956 130L229.772 128L231.254 126L232.218 124.001L232.472 123.004L232.547 121.04L232.091 119.189L231.678 118.344L230.486 116.894L228.867 115.859L226.996 115.297L226.035 115.188L225.089 115.188L224.17 115.297L222.424 115.859M174 178L175.671 177.98L177.157 177.852L178.029 177.682L178.981 177.397L180.773 176.397L181.566 175.682L182.821 173.941L183.566 172L183.891 170.045L183.956 169.16L184 166L182.329 165.256C181.246 164.819 180.135 164.449 178.979 164.264L177.039 164.109L176.094 164.152L174.344 164.515L173.573 164.858L172.318 165.894L171.515 167.344L171.283 168.189L171.113 170.04L171.162 171.013L171.546 172.976L172.283 174.84C172.824 175.914 173.42 176.945 174 178z"/>
<path style="fill:#fefefe; stroke:none;" d="M126 176.667L124.001 177.458L123.005 178.009L122.019 178.653L120.133 180.214L119.279 181.105L117.858 183.015L116.894 185.001L116.573 186L116.193 188L116.084 190L116.228 192L116.703 194L117.09 195L117.573 196L118.804 198C119.782 199.425 120.923 200.732 122.093 202C123.358 203.369 124.686 204.679 126.001 206L137 217L158.999 239L162.91 242.961L166.424 246.576L169.09 249.17L173.001 252.999C174.903 254.852 176.776 256.756 179 258.231L181 259.392L182 259.852L183 260.231L184 260.521L186 260.816L187 260.817L188 260.721L189 260.535L190.999 259.941L192.985 259.137L193.956 258.656L194.892 258.101L196.581 256.701L197.91 254.942L198.427 253.981L198.852 252.995L199.467 251L199.811 249C199.894 247.999 199.953 247.009 199.891 246.004C199.79 244.361 199.476 242.746 198.686 241.286C198.005 240.027 197.018 238.964 196.051 237.924L192.345 234.014L189.576 231.14L186.705 228.255C185.433 226.937 184.216 225.569 182.909 224.285L179.039 220.66L175.576 217.14L173.421 214.985L171.985 213.486L168.83 210.049L164.424 205.715L161.83 202.961C160.577 201.63 159.307 200.318 158 199.039C156.162 197.242 154.228 195.546 152.424 193.715L147.961 189C146.686 187.697 145.392 186.407 144.039 185.185C142.865 184.125 141.678 183.078 140.439 182.093C139.113 181.039 137.761 180.027 136.385 179.04L135.561 178.493L133.829 177.529L131.961 176.804L129.996 176.373L128.999 176.29L128 176.307L126 176.667M276.999 178.801L275 179.747L273 181.228L271.004 183.029L269.039 184.914L265.424 188.424L263.715 190.169L260.025 193.914L254.884 198.884L250.826 203.09L245.999 208L240.015 214L238.094 216L236.345 218L234.909 220L234.362 221L233.742 222.999L233.876 224.981L234.234 225.941L234.761 226.852L235.438 227.682L236.229 228.396L238.044 229.377L239.015 229.623L241.001 229.623L242.999 228.968L243.996 228.396L244.985 227.683L245.96 226.856C246.93 226.007 247.81 225.042 248.674 224.089C250.115 222.499 251.487 220.847 253.035 219.359C254.488 217.964 256.094 216.75 257.612 215.431C259.014 214.212 260.383 212.945 261.715 211.65C262.747 210.646 263.75 209.618 264.706 208.541C265.936 207.156 267.11 205.724 268.45 204.441C269.238 203.685 270.094 203.003 270.921 202.29L272.59 200.741C273.481 199.856 274.31 198.91 275.155 197.982L278.703 194.09L281.072 191.424C281.767 190.6 282.474 189.761 283.026 188.83L283.542 187.91L283.951 186.961L284.239 185.985L284.353 184.004L283.778 182.059L283.242 181.149L282.562 180.322L281.771 179.619L279.956 178.712L278.985 178.546L276.999 178.801M282 210L280.914 211.667L280.487 212.144L279.694 213.12L278.035 214.84L275.514 217.251L270.424 222.28C269.29 223.406 268.116 224.5 267.127 225.76C266.383 226.708 265.862 227.865 265.933 229.093C265.993 230.144 266.421 231.105 266.937 232.004C267.768 233.453 268.911 234.707 270.001 235.961L272.49 238.715L276.309 243.09L279.64 246.958C280.604 248.11 281.507 249.321 282.551 250.405L284.725 252.555L286.115 254.039C287.043 255.089 287.886 256.212 288.781 257.289L292.754 262.004L296.076 265.961L300.742 271.285L303.924 275.015L307.282 279L311.718 284L315.155 287.996L320.254 293.576C321.533 295.025 322.771 296.512 323.975 298.025C325.18 299.538 326.312 301.109 327.58 302.572C328.33 303.436 329.131 304.253 329.92 305.08L331.502 306.749L333.001 308.369L334.514 309.833C335.265 310.43 336.107 310.993 337.093 311.093L339.015 310.825L340.004 310.338L341.001 309.663L342 308.847L343 307.941L344 306.981L346 304.999L352 299L358 293L360.995 290L361.98 289L363.833 287L364.623 286C365.242 285.102 365.793 284.127 365.793 283L365.248 281.004L364.623 280.015L363.833 279.039L362.937 278.09L360.995 276.285L357 272.845C355.662 271.668 354.367 270.441 353.001 269.296C351.106 267.709 349.136 266.215 347.285 264.576L343.83 261.385L340.985 258.844L338 256.155L333 251.845L330 249.155L327.001 246.59C324.516 244.491 322.01 242.413 319.576 240.255L316.91 237.831C315.947 236.945 314.995 236.045 314 235.194C312.186 233.644 310.236 232.268 308.424 230.715L305.83 228.381L302.986 225.844L300.039 223.17L295.576 219.255L291.965 215.998L289.137 213.466L288.321 212.735L287.517 211.883L287.086 211.488L286 210L282 210M378 292C376.015 293.984 374.035 295.972 372.01 297.915L368.285 301.424C366.453 303.229 364.748 305.156 362.961 307.004C360.673 309.368 358.325 311.674 356 314L353.005 317C352.038 317.981 351.069 318.958 350.167 320L349.377 321L348.752 322L348.206 324C348.198 325.52 349.173 326.831 350.052 327.975L352.762 331.329L354 333L355.667 332.387L357.121 331.559L358.855 330.275L359.719 329.517C360.942 328.404 362.037 327.161 363.17 325.961L366.015 322.999L370 319L377 312L380.998 308.005C382.263 306.76 383.517 305.505 384.84 304.321L385.841 303.517L386.329 303.086L388 302L388 299L386.329 298.012L385.841 297.651L384.841 296.97L381.159 294.147L380.159 293.427L379.671 293.045L378 292M365 343L365.301 344.488L365.86 345.735L366.894 347.31L368.34 349.091L371.845 353.001L376.076 357.961L379.258 361.576L381.499 364.166L387.001 370.424C388.042 371.608 389.049 372.833 390.17 373.945L391.054 374.826L392.845 376.444L394.576 377.787C395.387 378.387 396.28 378.886 397.17 379.355L399.039 380.254L400.015 380.673L401.004 381.045L403 381.61C404.966 382.03 407 381.998 409 381.998C410.665 381.999 412.342 382.007 414 381.826C416.757 381.527 419.497 380.801 422 379.597L423.999 378.518L424.996 377.891L426.96 376.471L427.907 375.671L429.671 373.907C431.513 371.857 432.962 369.456 434.19 367C435.146 365.087 435.991 363.09 436.471 361C436.698 360.011 436.829 359.011 436.907 358C436.983 357.002 436.983 356 436.992 355L436.96 353L436.815 351C436.688 349.993 436.518 348.967 436.201 348L435.481 346.004C435.041 345.011 434.576 344.042 434.051 343.09C432.415 340.121 430.309 337.458 427.906 335.075C426.349 333.532 424.645 332.16 423 330.715C421.307 329.228 419.665 327.684 418 326.166L416 324.425L413.004 321.87L409.171 318.525L405.804 315.776L404.196 314.451L402.561 313.127L401.711 312.554L400.833 312.118L399.001 311.824L397.181 312.337L395.514 313.407L394.001 314.761L392.501 316.285L390.909 317.909L387.742 321L383.905 324.924L375.572 333.286L371.962 337.01L370.021 338.942L368.16 340.679L367.159 341.483L366.671 341.914L365 343z"/>
<path style="fill:#1d6e80; stroke:none;" d="M135 314.468C133.638 314.73 132.295 315.103 131 315.599C129.621 316.126 128.28 316.783 127 317.518C125.236 318.531 123.571 319.686 122.13 321.13C120.969 322.292 119.982 323.596 119.133 325.001L118.059 327L117.598 328L116.825 330L116.515 331C116.248 331.994 116.01 332.99 115.809 334C115.482 335.651 115.209 337.311 115.26 339C115.291 340.009 115.444 341.009 115.623 342C115.866 343.353 116.2 344.682 116.59 346L117.542 348.985L117.763 350.91L117.184 352.715L115.809 354.424L113.981 356.155L111.108 358.845C110.268 359.667 109.425 360.497 108.698 361.424L107.518 363.17L106.53 365.039L105.526 367.004C104.843 368.327 104.107 369.626 103.529 371C102.984 372.292 102.576 373.62 102.329 375C102.094 376.318 102.036 377.664 102.015 379L102 384L102.019 388L102.059 388.999L102.318 390.981L103.028 392.852L104.318 394.397L105.148 394.972L107.019 395.682L108.005 395.852L109.001 395.941L111 395.995L114 396L119 396L150 396L248 396L276 396L281 396L284 395.995L285.996 395.941L286.985 395.852L288.891 395.397L290.566 394.397L291.258 393.682L291.821 392.852L292.258 391.941L292.772 389.995L292.956 388C293.001 386.667 293 385.334 293 384C293 381.996 293.011 379.996 292.816 378C292.717 376.987 292.491 375.984 292.239 375L291.64 373C291.288 371.994 290.946 370.989 290.547 370C290.138 368.985 289.686 367.99 289.218 367.001L288.24 365.015L287.737 364.039L286.648 362.17L285.363 360.428C283.797 358.554 281.857 357.056 280.069 355.41C278.986 354.412 277.863 353.333 277.353 351.91L277.121 350.961L277.188 348.996L277.403 347.999L277.965 346L278.482 344L278.674 343L278.907 341L278.985 339L278.985 337L278.907 335L278.815 334L278.468 332C277.958 329.862 277.027 327.884 275.906 326.004L274.637 324.04C273.958 323.1 273.28 322.171 272.482 321.326C271.158 319.922 269.61 318.748 267.985 317.715L265.999 316.554L265 316.071L264 315.663L263 315.329C262.007 315.053 261.013 314.813 260 314.62C258.676 314.366 257.345 314.184 256 314.09C255.002 314.02 254 314.013 253 314.004L249 314L231 314L168 314L148 314L142 314.001C140.667 314.007 139.331 313.997 138 314.09C136.993 314.161 135.992 314.278 135 314.468z"/>
<path style="fill:#fefefe; stroke:none;" d="M137.04 328.649L135.185 329.417L134.329 329.92L133.533 330.483L132.804 331.109L131.573 332.529L130.703 334.185L130.42 335.093L130.228 336.04L130.088 338L130.228 339.96L130.42 340.907L130.703 341.815L131.573 343.471L132.804 344.891L133.533 345.517L134.329 346.08L135.185 346.583L137.04 347.351C138.649 347.861 140.328 347.935 142 347.985L144 347.999L148 348L166 348L229 348L250 348L252.999 347.999L254.985 347.981C255.935 347.944 256.894 347.927 257.826 347.721C258.729 347.522 259.557 347.19 260.33 346.682L261.826 345.427L262.517 344.656L263.697 342.906L264.145 341.96L264.482 340.985L264.812 338.999L264.703 337L264.481 336L264.141 335.001L263.682 334.005L262.427 332.059L260.811 330.318L258.96 329.028L257.985 328.603L255.999 328.148L254 328.019L252 328.001L247 328L229 328L176 328L151 328L146 328L143 328.004C141.001 328.031 138.967 328.038 137.04 328.649M116 382L279 382L278.802 380.329L278.684 379.841L278.481 378.84L277.945 376.975C277.604 375.97 277.26 374.965 276.811 374.001L275.775 372.015L275.147 371.04L273.66 369.188L271.906 367.554L270.96 366.84L269.985 366.189L267.999 365.059L267 364.569L266 364.133L264 363.474C262.687 363.143 261.348 363.059 260 363.019L256 363L245 363L148 363L139 363L135 363.015C134 363.039 132.992 363.065 132 363.21C130.265 363.463 128.597 363.979 127.004 364.709C124.982 365.636 123.088 366.855 121.554 368.479C120.547 369.545 119.75 370.775 119.019 372.039L117.964 374.004L117.479 374.999L116.688 376.975L116.224 378.84L116.046 380.329L116 382z"/>
<path style="fill:#1d6e80; stroke:none;" d="M318 565L319.488 563.344L319.879 562.88L321.416 561.126C322.849 559.5 324.308 557.895 325.654 556.196L326.922 554.561L327.467 553.711L327.878 552.829L328.097 551.911L328.083 550.961L327.338 548.996L325.849 547L323.094 544L322.242 543L320.947 541L320.478 539L320.582 538L320.877 537L321.827 535L322.948 533C323.844 531.358 324.759 529.727 325.485 528C325.899 527.017 326.234 526.014 326.561 525L327.14 523L327.705 521C327.982 520.003 328.268 519.009 328.5 518C328.804 516.678 329.022 515.338 329.245 514C329.522 512.339 329.795 510.682 329.91 509C329.979 508.002 329.992 507 329.992 506C329.992 504.662 329.94 503.333 329.83 502C329.747 500.994 329.565 499.996 329.41 499L329.08 497L328.388 493C328.065 491.321 327.73 489.636 327.226 488C326.369 485.219 325.049 482.622 323.777 480.015C323.169 478.768 322.581 477.504 321.916 476.285C320.937 474.491 319.903 472.717 318.711 471.054C318.081 470.176 317.416 469.331 316.706 468.517C315.838 467.521 314.906 466.578 313.961 465.657C312.66 464.389 311.309 463.183 309.91 462.025C308.716 461.037 307.445 460.143 306.169 459.265C304.758 458.293 303.316 457.373 301.83 456.521C300.589 455.809 299.282 455.205 297.996 454.579C296.673 453.936 295.349 453.298 294 452.711L292 451.949C290.687 451.487 289.344 451.108 288 450.749L287 450.511L286 450.31L284 450.004L282 449.729C280.334 449.489 278.681 449.205 277 449.09C276.002 449.021 275 449.013 274 449.004L271 449.001C269.332 449.008 267.662 449.004 266 449.171C263.638 449.407 261.305 449.924 259 450.475L256 451.269L254 451.769L251 452.493C249.975 452.782 248.974 453.12 248 453.553C246.961 454.016 245.98 454.583 245 455.156L242 456.954L239.004 458.782L236.09 460.733C235.189 461.356 234.29 462.002 233.464 462.724C231.755 464.217 230.353 466.009 228.873 467.719C227.628 469.158 226.344 470.561 225.205 472.09C224.031 473.665 223.004 475.342 221.954 477C221.124 478.31 220.255 479.615 219.553 481L218.659 483L218.315 484L217.45 487C217.065 488.331 216.649 489.65 216.336 491L215.743 494L215.339 496L214.464 500C214.21 501.321 214.098 502.658 214.039 504C213.952 505.999 214.007 508.007 214.17 510C214.279 511.341 214.537 512.67 214.729 514C214.97 515.67 215.153 517.349 215.511 519C215.73 520.01 216.012 521.007 216.299 522C216.687 523.349 217.109 524.682 217.591 526L217.995 527L219.309 530C219.891 531.34 220.411 532.711 221.106 533.999C221.846 535.373 222.744 536.633 223.635 537.911L225.454 540.576L227.674 544.05C228.306 544.976 228.971 545.87 229.705 546.718L231.304 548.41L233.09 550.076L235.015 551.7L236.004 552.461L238 553.812C239.578 554.806 241.264 555.625 242.91 556.495C244.077 557.112 245.225 557.777 246.424 558.329L248.17 559.062L251.015 560.022L253.001 560.67C254.983 561.319 256.958 562.04 259 562.483C260.977 562.912 262.999 563.021 265 563.282C266.335 563.456 267.659 563.701 269 563.83C269.997 563.926 270.998 563.971 272 563.971C272.998 563.971 274.007 563.941 275 563.83C276.676 563.644 278.336 563.355 280 563.08C282.343 562.693 284.71 562.342 287 561.7C289.056 561.124 291.014 560.277 293 559.504L296 558.34L298 557.448L300 556.441L302 555.457C302.957 555.071 303.946 554.728 304.999 554.867C306.131 555.017 307.071 555.6 307.961 556.278C308.971 557.049 309.818 558.009 310.7 558.916L313.111 561.468L313.86 562.197L315.304 563.43L316.515 564.267L318 565M130 450L130 563L150 563L150 523L165 523L169 522.999C170.669 522.989 172.337 522.991 174 522.83C175.342 522.7 176.671 522.465 178 522.246L181 521.739C182.006 521.55 183.006 521.345 184 521.102L186.996 520.289C188.586 519.827 190.187 519.354 191.715 518.711C193.232 518.071 194.689 517.265 196.09 516.402L198.014 515.161L199 514.446L200.96 512.812L202.816 510.96L203.674 509.985L205.235 507.999L206.598 506L207.736 504L208.583 502C209.018 500.681 209.371 499.342 209.727 498L210.486 495L210.816 493C210.974 491.674 210.984 490.334 210.996 489L210.999 486C210.99 483.995 211 481.985 210.675 480C210.453 478.646 210.094 477.31 209.691 476C209.172 474.307 208.616 472.635 207.932 471C207.362 469.637 206.72 468.311 206.039 467L204.87 465.005L203.468 463.054L201.829 461.263L200.946 460.47L200.049 459.75L199.155 459.093L197.424 457.874C196.269 457.065 195.135 456.205 193.91 455.5L192.961 454.955C191.661 454.265 190.342 453.619 189 453.015C186.434 451.858 183.79 450.795 181 450.326C179.676 450.103 178.34 450.043 177 450.015L173 450L161 450L130 450M342 450L342 563L350 563L353 563L354.999 562.995L356.981 562.941L357.941 562.852L358.852 562.682L360.397 561.972L360.972 561.397L361.397 560.682L361.852 558.941C362.004 557.632 361.994 556.316 361.999 555L362 552L362 523L376 523L380 522.999C381.333 522.995 382.669 523.002 384 522.911C385.007 522.841 386 522.712 387 522.576L389 522.285L391 522.075L393.996 521.829C394.98 521.713 395.952 521.549 396.91 521.296C398.743 520.812 400.448 519.976 402.166 519.195C403.707 518.495 405.246 517.807 406.715 516.961C407.593 516.455 408.45 515.902 409.285 515.33C410.542 514.47 411.807 513.62 412.961 512.621C413.893 511.814 414.738 510.944 415.526 509.996L416.87 508.166L417.981 506.424C418.492 505.57 419.008 504.718 419.461 503.83C420.089 502.596 420.616 501.321 421.022 499.996C421.622 498.043 421.917 496.011 422.246 494L422.714 491L422.83 490C422.964 488.334 423.019 486.67 422.91 485C422.755 482.636 422.264 480.318 421.8 478L420.958 474L420.401 472L420.045 471L419.637 470L418.633 468L417.362 466L415.787 464.001L413.957 462.019C413.015 461.055 412.027 460.151 411.014 459.264L409.09 457.764C407.99 456.955 406.816 456.239 405.665 455.505C404.371 454.681 403.096 453.82 401.7 453.173C400.189 452.473 398.581 452 396.996 451.5L394 450.598L392 450.209C391.007 450.069 390.001 450.039 389 450.015L385 450L374 450L342 450z"/>
<path style="fill:#fefefe; stroke:none;" d="M150 467L150 506L166 506L170 505.996C171.334 505.984 172.674 505.975 174 505.816C175.703 505.611 177.36 505.185 179 504.691C180.712 504.174 182.435 503.611 183.996 502.722L185.957 501.431L186.895 500.657L187.786 499.811L189.347 497.96L190.543 495.996L190.991 494.999L191.606 493C191.832 492.016 191.907 491.005 191.957 490C192.007 489.002 191.998 487.999 191.998 487C191.999 485.669 192.012 484.328 191.906 483C191.825 481.991 191.704 480.977 191.428 480L190.697 478.004L190.181 477.015L188.891 475.093L187.37 473.329L186.557 472.533L185.71 471.804L183.91 470.569L181.985 469.663L180.996 469.326L179 468.783L177 468.27L174 467.514L172 467.184C170.674 467.026 169.333 467.012 168 467.004L163 467L150 467M290 538L288.329 536.914L287.841 536.483L286.84 535.679C285.518 534.495 284.272 533.234 282.998 532C282.009 531.041 281.046 530.047 280 529.148C279.068 528.347 278.105 527.582 277 527.028L275 526.314L274 526.133L272 525.915L271 525.795L269 525.39L267.004 524.752L266.015 524.366L264.09 523.467L263.174 522.925L261.478 521.582C260.651 520.798 259.949 519.892 259.304 518.956C258.655 518.013 258.084 517.014 257.554 515.999C257.044 515.022 256.604 514.021 256.189 513L255.84 512L255.34 510L255.193 509L255.113 508L255.095 507L255.279 505L255.815 503L256.214 502.001L257.194 500.015L258.289 498.094L259.465 496.34L260.785 494.85C261.716 493.954 262.816 493.249 263.924 492.595C265.279 491.794 266.645 490.94 268.17 490.495C269.406 490.135 270.721 490.023 272.004 490.023C273.003 490.023 274.006 490.017 275 490.133C276.03 490.252 277.023 490.466 278 490.819L280 491.724L281 492.287L282.996 493.613C285.326 495.339 287.46 497.439 288.86 500.001L289.736 502L290.056 503L290.517 505L290.738 506.999L290.694 508.985L290.554 510.907L290.562 511.816L290.933 513.486C291.263 514.331 291.845 515.048 292.407 515.745L293.059 516.514L294.519 518.184L296.184 520.036L298.039 521.945L299.979 523.682L301.84 524.971L303.329 525.657L305 526L305.572 524.329L305.778 523.841L306.167 522.839C306.544 521.896 306.95 520.963 307.265 519.995L307.826 518L308.421 515L308.803 513C309.124 511.338 309.493 509.68 309.711 508L309.91 506L309.981 504.004L309.945 502.039C309.883 501.104 309.774 500.196 309.545 499.285C309.248 498.11 308.754 496.994 308.415 495.83L307.461 491.996L306.776 490C305.894 487.864 304.602 485.915 303.326 484C301.943 481.927 300.51 479.874 298.816 478.04L296.96 476.185L295.985 475.329L294.996 474.529L293.999 473.789L293 473.105C292.017 472.48 291.029 471.875 290 471.327L288.004 470.345L285.09 469.131L283.285 468.395L281.576 467.725L279.83 467.26C278.892 467.085 277.937 467.047 276.985 467.019L273 467L269 467.004L267 467.043L266 467.104L264 467.376C262.635 467.639 261.309 468.078 260 468.539C258.988 468.895 257.986 469.276 257 469.7C255.985 470.136 254.985 470.612 254 471.113C252.623 471.814 251.277 472.562 250.015 473.456C248.391 474.606 246.901 475.952 245.478 477.339C244.046 478.735 242.68 480.216 241.575 481.888C240.511 483.498 239.728 485.275 238.961 487.039C238.25 488.675 237.588 490.33 236.965 492C236.353 493.637 235.721 495.281 235.379 497L235.104 499L235.043 500L235.004 502L235 506L235.004 510C235.031 511.673 235.041 513.346 235.329 515L235.785 517L236.093 518L236.816 520L237.616 522C238.04 523.01 238.467 524.026 238.971 525C239.857 526.712 240.816 528.381 241.866 529.999C243.37 532.318 245.017 534.54 247.004 536.471C248.281 537.713 249.696 538.801 251.171 539.796C252.718 540.839 254.33 541.771 256.001 542.601L257 543.046L258 543.441L260 544.072C260.989 544.343 261.99 544.529 263 544.699L264 544.826L266 544.961L270 545L274 545L277 544.996L280 544.906L282 544.66C283.033 544.495 284.01 544.146 284.981 543.772L286.852 542.776L287.682 542.171L288.971 540.819L289.657 539.569L290 538M362 467L362 506L379 506L383 505.985C384.001 505.964 385.003 505.934 386 505.826C387.698 505.644 389.353 505.272 391 504.829C392.372 504.461 393.735 503.967 394.999 503.316C397.091 502.237 399.017 500.799 400.44 498.906L401.606 496.985L402.057 495.996L402.446 494.999L403.12 493C403.406 492.02 403.678 491.018 403.791 490L403.953 488L403.97 487L403.906 485L403.674 483C403.529 481.979 403.232 480.986 402.941 480L402.597 479.001L402.196 478.004L401.157 476.043L399.722 474.21L398.867 473.38L396.981 471.919L395.003 470.705L394.015 470.174L391.17 468.819C389.763 468.185 388.357 467.547 386.83 467.26C385.57 467.023 384.273 467.016 382.996 467.005L378 467L362 467z"/>
</svg>
